<svg width="35" height="35" viewBox="0 0 35 35" fill="none" xmlns="http://www.w3.org/2000/svg">
<path d="M25.677 15.3051L18.4266 3.75867C18.3214 3.61094 18.1825 3.4905 18.0213 3.40739C17.8601 3.32429 17.6814 3.28092 17.5 3.28092C17.3186 3.28092 17.1399 3.32429 16.9787 3.40739C16.8175 3.4905 16.6786 3.61094 16.5734 3.75867L9.29042 15.3611C8.2788 16.9928 7.71514 18.8623 7.65625 20.7812C7.65625 23.392 8.69336 25.8958 10.5394 27.7418C12.3855 29.5879 14.8893 30.625 17.5 30.625C20.1107 30.625 22.6145 29.5879 24.4606 27.7418C26.3066 25.8958 27.3438 23.392 27.3438 20.7812C27.2809 18.8408 26.7058 16.9515 25.677 15.3051ZM17.5 28.438C15.4702 28.4355 13.5243 27.628 12.0891 26.1927C10.6538 24.7575 9.84633 22.8116 9.84375 20.7818C9.90183 19.252 10.3614 17.7643 11.1763 16.4683L12.1989 14.8399L23.2171 25.8575C22.5014 26.6681 21.6216 27.3174 20.636 27.7623C19.6503 28.2072 18.5814 28.4375 17.5 28.438Z" fill="white"/>
</svg>
