<svg width="35" height="35" viewBox="0 0 35 35" fill="none" xmlns="http://www.w3.org/2000/svg">
<path d="M28.4374 32.8125H24.0624C23.4828 32.8108 22.9274 32.5798 22.5175 32.1699C22.1076 31.76 21.8766 31.2046 21.8749 30.625V22.9688C21.2953 22.967 20.7399 22.736 20.33 22.3262C19.9201 21.9163 19.6891 21.3609 19.6874 20.7812V14.2187C19.6795 13.7857 19.7589 13.3554 19.921 12.9537C20.0831 12.5521 20.3245 12.1872 20.6308 11.8809C20.9371 11.5746 21.302 11.3332 21.7037 11.1711C22.1054 11.009 22.5356 10.9296 22.9687 10.9375H29.5312C29.9643 10.9296 30.3945 11.009 30.7962 11.1711C31.1979 11.3332 31.5628 11.5746 31.8691 11.8809C32.1753 12.1872 32.4167 12.5521 32.5788 12.9537C32.7409 13.3554 32.8204 13.7857 32.8124 14.2187V20.7812C32.8107 21.3609 32.5797 21.9163 32.1698 22.3262C31.76 22.736 31.2046 22.967 30.6249 22.9688V30.625C30.6232 31.2046 30.3922 31.76 29.9823 32.1699C29.5725 32.5798 29.0171 32.8108 28.4374 32.8125ZM22.9687 13.125C22.8228 13.1162 22.6766 13.1384 22.5399 13.1903C22.4032 13.2422 22.2791 13.3224 22.1757 13.4258C22.0723 13.5292 21.9921 13.6533 21.9402 13.79C21.8884 13.9267 21.8661 14.0728 21.8749 14.2187V20.7812H24.0624V30.625H28.4374V20.7812H30.6249V14.2187C30.6337 14.0728 30.6115 13.9267 30.5596 13.79C30.5078 13.6533 30.4275 13.5292 30.3241 13.4258C30.2208 13.3224 30.0966 13.2422 29.9599 13.1903C29.8232 13.1384 29.6771 13.1162 29.5312 13.125H22.9687Z" fill="white"/>
<path d="M26.25 9.84375C25.3847 9.84375 24.5388 9.58716 23.8194 9.10643C23.0999 8.6257 22.5392 7.94242 22.208 7.14299C21.8769 6.34356 21.7903 5.4639 21.9591 4.61523C22.1279 3.76657 22.5446 2.98701 23.1564 2.37516C23.7683 1.76331 24.5478 1.34663 25.3965 1.17782C26.2451 1.00901 27.1248 1.09565 27.9242 1.42678C28.7237 1.75791 29.407 2.31867 29.8877 3.03813C30.3684 3.7576 30.625 4.60346 30.625 5.46875C30.6216 6.62803 30.1596 7.73885 29.3398 8.55858C28.5201 9.37832 27.4093 9.84035 26.25 9.84375ZM26.25 3.28125C25.8174 3.28125 25.3944 3.40955 25.0347 3.64991C24.675 3.89028 24.3946 4.23192 24.229 4.63163C24.0634 5.03135 24.0201 5.47118 24.1045 5.89551C24.1889 6.31985 24.3973 6.70962 24.7032 7.01555C25.0091 7.32148 25.3989 7.52981 25.8232 7.61422C26.2476 7.69863 26.6874 7.65531 27.0871 7.48974C27.4868 7.32417 27.8285 7.04379 28.0688 6.68406C28.3092 6.32433 28.4375 5.9014 28.4375 5.46875C28.4358 4.88911 28.2048 4.3337 27.7949 3.92384C27.3851 3.51397 26.8296 3.28295 26.25 3.28125Z" fill="white"/>
<path d="M10.9375 22.0761V13.125H8.75001V22.0761C8.02024 22.3342 7.40518 22.8418 7.01353 23.5095C6.62189 24.1771 6.47887 24.9617 6.60976 25.7246C6.74065 26.4875 7.13702 27.1795 7.72882 27.6784C8.32061 28.1773 9.06972 28.451 9.84376 28.451C10.6178 28.451 11.3669 28.1773 11.9587 27.6784C12.5505 27.1795 12.9469 26.4875 13.0778 25.7246C13.2086 24.9617 13.0656 24.1771 12.674 23.5095C12.2823 22.8418 11.6673 22.3342 10.9375 22.0761Z" fill="white"/>
<path d="M9.84369 32.8125C8.33668 32.814 6.86281 32.3702 5.60711 31.537C4.35141 30.7037 3.36984 29.5181 2.78562 28.1289C2.20141 26.7398 2.04059 25.209 2.32334 23.7287C2.6061 22.2485 3.31983 20.8847 4.37494 19.8087V7.65625C4.37494 6.20585 4.95111 4.81485 5.9767 3.78926C7.00229 2.76367 8.39329 2.1875 9.84369 2.1875C11.2941 2.1875 12.6851 2.76367 13.7107 3.78926C14.7363 4.81485 15.3124 6.20585 15.3124 7.65625V19.8087C16.3676 20.8847 17.0813 22.2485 17.364 23.7287C17.6468 25.209 17.486 26.7398 16.9018 28.1289C16.3175 29.5181 15.336 30.7037 14.0803 31.537C12.8246 32.3702 11.3507 32.814 9.84369 32.8125ZM9.84369 4.375C8.97374 4.37596 8.1397 4.72196 7.52455 5.33711C6.90941 5.95226 6.5634 6.7863 6.56244 7.65625V20.7631L6.19932 21.0894C5.3734 21.8275 4.79113 22.7991 4.52958 23.8755C4.26802 24.952 4.33951 26.0824 4.73459 27.1173C5.12966 28.1522 5.8297 29.0427 6.74203 29.6709C7.65436 30.2992 8.73597 30.6356 9.84369 30.6356C10.9514 30.6356 12.033 30.2992 12.9454 29.6709C13.8577 29.0427 14.5577 28.1522 14.9528 27.1173C15.3479 26.0824 15.4194 24.952 15.1578 23.8755C14.8962 22.7991 14.314 21.8275 13.4881 21.0894L13.1249 20.7631V7.65625C13.124 6.7863 12.778 5.95226 12.1628 5.33711C11.5477 4.72196 10.7136 4.37596 9.84369 4.375Z" fill="white"/>
</svg>
