<svg width="30" height="30" viewBox="0 0 30 30" fill="none" xmlns="http://www.w3.org/2000/svg">
<path d="M19.375 17.5H18.3875L18.0375 17.1625C19.5375 15.4125 20.3126 13.025 19.8876 10.4875C19.3001 7.01253 16.4 4.23753 12.9 3.81253C7.61255 3.16253 3.16255 7.61253 3.81255 12.9C4.23755 16.4 7.01255 19.3 10.4876 19.8875C13.0251 20.3125 15.4125 19.5375 17.1625 18.0375L17.5 18.3875V19.375L22.8125 24.6875C23.325 25.2 24.1625 25.2 24.675 24.6875C25.1875 24.175 25.1875 23.3375 24.675 22.825L19.375 17.5ZM11.875 17.5C8.76255 17.5 6.25005 14.9875 6.25005 11.875C6.25005 8.76253 8.76255 6.25003 11.875 6.25003C14.9875 6.25003 17.5 8.76253 17.5 11.875C17.5 14.9875 14.9875 17.5 11.875 17.5Z" fill="#1D1D1D"/>
</svg>
