<svg width="14" height="14" viewBox="0 0 14 14" fill="none" xmlns="http://www.w3.org/2000/svg">
<path d="M10.8889 1.55556C10.5681 1.55556 10.2589 1.60417 9.96761 1.69439C9.62267 0.708555 8.687 0 7.58333 0C6.39956 0 5.40867 0.815111 5.13372 1.91372C4.8405 1.69206 4.47961 1.55556 4.08333 1.55556C3.11694 1.55556 2.33333 2.33917 2.33333 3.30556C2.33333 3.54044 2.38117 3.76367 2.46517 3.96822C2.29833 3.92194 2.12606 3.88889 1.94444 3.88889C0.870333 3.88889 0 4.75922 0 5.83333C0 6.90744 0.870333 7.77778 1.94444 7.77778H10.8889C12.607 7.77778 14 6.38517 14 4.66667C14 2.94856 12.607 1.55556 10.8889 1.55556Z" fill="#E1E8ED"/>
<path d="M4.6663 9.70707L4.62235 8.37668L3.50624 9.0409C3.25813 9.17507 3.09324 9.43912 3.10335 9.74051C3.11774 10.1695 3.47902 10.509 3.91068 10.5C4.34196 10.4911 4.68068 10.1356 4.6663 9.70707ZM3.89668 12.6082L3.85274 11.2778L2.73663 11.942C2.48852 12.0762 2.32363 12.3402 2.33374 12.6416C2.34813 13.0706 2.70941 13.4101 3.14107 13.4011C3.57274 13.3922 3.91107 13.0367 3.89668 12.6082ZM1.95224 10.8737L1.9083 9.54335L0.792184 10.2076C0.544073 10.3417 0.379184 10.6058 0.389295 10.9072C0.403684 11.3357 0.764962 11.6752 1.19663 11.6667C1.6283 11.6577 1.96663 11.3023 1.95224 10.8737ZM8.95224 9.70707L8.9083 8.37668L7.79257 9.0409C7.54407 9.17507 7.37957 9.43912 7.38968 9.74051C7.40407 10.1695 7.76535 10.509 8.19702 10.5C8.6283 10.4911 8.96663 10.1356 8.95224 9.70707ZM6.61074 11.2626L6.5668 9.93223L5.45107 10.5965C5.20257 10.7306 5.03807 10.9947 5.04818 11.2961C5.06257 11.725 5.42385 12.0645 5.85552 12.0556C6.2868 12.0466 6.62513 11.6912 6.61074 11.2626ZM8.56335 12.9971L8.51902 11.6667L7.4033 12.3309C7.1548 12.4651 6.9903 12.7291 7.00041 13.0305C7.0148 13.4595 7.37607 13.799 7.80774 13.79C8.23941 13.7811 8.57774 13.4256 8.56335 12.9971ZM11.2774 10.8737L11.2335 9.54335L10.1177 10.2076C9.86924 10.3417 9.70474 10.6058 9.71485 10.9072C9.72924 11.3361 10.0905 11.6756 10.5222 11.6667C10.9535 11.6577 11.2918 11.3023 11.2774 10.8737Z" fill="#5DADEC"/>
</svg>
