<svg width="39" height="32" viewBox="0 0 39 32" fill="none" xmlns="http://www.w3.org/2000/svg">
<path d="M15.2855 3.0327C15.6921 2.62366 16.1935 2.32142 16.7451 2.15285C17.2967 1.98428 17.8813 1.95461 18.4472 2.06647C19.013 2.17833 19.5424 2.42825 19.9883 2.79403C20.4343 3.1598 20.783 3.63009 21.0033 4.16309C21.2237 4.69609 21.309 5.27529 21.2516 5.84919C21.1942 6.4231 20.9959 6.97393 20.6743 7.45272C20.3527 7.93151 19.9178 8.32343 19.4083 8.59363C18.8987 8.86384 18.3303 9.00396 17.7535 9.00154H2M20.5366 28.9735C20.9433 29.3825 21.4447 29.6848 21.9962 29.8534C22.5478 30.0219 23.1325 30.0516 23.6983 29.9397C24.2642 29.8279 24.7936 29.578 25.2395 29.2122C25.6855 28.8464 26.0341 28.3761 26.2545 27.8431C26.4749 27.3101 26.5602 26.7309 26.5028 26.157C26.4454 25.5831 26.2471 25.0323 25.9255 24.5535C25.6039 24.0747 25.169 23.6828 24.6594 23.4126C24.1499 23.1424 23.5815 23.0022 23.0047 23.0047H2M29.5337 8.52893C30.0428 8.02112 30.6692 7.64658 31.3574 7.43846C32.0457 7.23033 32.7747 7.19503 33.4799 7.33566C34.1851 7.4763 34.8447 7.78855 35.4005 8.24479C35.9563 8.70103 36.3911 9.2872 36.6665 9.95146C36.9418 10.6157 37.0492 11.3376 36.9792 12.0532C36.9092 12.7689 36.6639 13.4563 36.265 14.0546C35.8661 14.6529 35.326 15.1436 34.6923 15.4835C34.0586 15.8234 33.3509 16.0018 32.6319 16.0031H2" stroke="white" stroke-width="2.5" stroke-linecap="round" stroke-linejoin="round"/>
</svg>
