<svg width="90" height="81" viewBox="0 0 90 81" fill="none" xmlns="http://www.w3.org/2000/svg">
<path d="M19.05 59.1L26.25 51.75C23.7 51.15 21.3 50.25 19.2 48.75L19.05 59.1ZM42.45 2.4L35.25 9.75C37.8 10.35 40.2 11.25 42.3 12.75L42.45 2.4ZM2.4 42.45L12.75 42.3C11.4 40.2 10.35 37.8 9.75 35.25L2.4 42.45ZM59.1 19.05L48.75 19.2C50.1 21.3 51.15 23.7 51.75 26.25L59.1 19.05ZM2.4 19.05L9.75 26.25C10.35 23.7 11.25 21.3 12.75 19.2L2.4 19.05ZM59.1 42.45L51.75 35.25C51.15 37.8 50.25 40.2 48.75 42.3L59.1 42.45ZM19.05 2.4L19.2 12.75C21.3 11.4 23.7 10.35 26.25 9.75L19.05 2.4ZM42.45 59.1L42.3 48.75C40.2 50.1 37.8 51.15 35.25 51.75L42.45 59.1ZM13.05 43.05L9 52.5L18.45 48.45C16.35 46.95 14.55 45.15 13.05 43.05ZM48.45 18.45L52.5 9L43.05 13.05C45.15 14.55 46.95 16.35 48.45 18.45ZM9.6 26.85L0 30.75L9.6 34.65C9.45 33.45 9.3 32.1 9.3 30.75C9.15 29.4 9.3 28.2 9.6 26.85ZM51.9 34.65L61.5 30.75L51.9 26.85C52.2 28.05 52.2 29.4 52.2 30.75C52.2 32.1 52.2 33.3 51.9 34.65ZM18.45 13.05L9 9L13.05 18.45C14.55 16.35 16.35 14.55 18.45 13.05ZM43.05 48.45L52.5 52.5L48.45 43.05C46.95 45.15 45.15 46.95 43.05 48.45ZM34.65 9.6L30.75 0L26.85 9.6C28.05 9.45 29.4 9.3 30.75 9.3C32.1 9.15 33.3 9.3 34.65 9.6ZM26.85 51.9L30.75 61.5L34.65 51.9C33.45 52.05 32.1 52.2 30.75 52.2C29.4 52.2 28.2 52.2 26.85 51.9Z" fill="#FFCE31"/>
<path d="M30.75 50.25C41.5196 50.25 50.25 41.5196 50.25 30.75C50.25 19.9805 41.5196 11.25 30.75 11.25C19.9805 11.25 11.25 19.9805 11.25 30.75C11.25 41.5196 19.9805 50.25 30.75 50.25Z" fill="#FFCE31"/>
<path d="M22.8 78.15C21.3 78.15 19.8 77.85 18.45 77.4C12.75 75.45 8.84998 70.05 8.84998 63.9C8.84998 59.85 10.65 55.8 13.65 53.1C14.4 52.35 15.3 51.75 16.2 51.3L17.1 48C19.35 39.75 26.85 34.05 35.25 34.05C36.15 34.05 36.9 34.05 37.95 34.2L40.2 34.65L40.5 33.9C43.95 27.6 50.4 23.85 57.3 23.85C67.95 23.85 76.5 32.7 76.5 43.5V45.45C77.25 45.75 78.15 46.2 78.9 46.65C84 49.65 87.15 55.35 87.15 61.35C87.15 69.3 81.9 76.05 74.25 77.85C73.05 78.15 71.7 78.3 70.5 78.3H22.8V78.15Z" fill="white"/>
<path d="M57.45 26.7C66.45 26.7 73.8 34.2 73.8 43.5V44.85C70.05 45.15 66.6 46.65 63.9 49.05C65.85 47.85 68.25 47.25 70.8 47.25C71.7 47.25 72.6 47.4 73.5 47.55C75 47.85 76.35 48.45 77.7 49.2C81.75 51.6 84.6 56.1 84.6 61.3501C84.6 67.9501 80.1 73.6501 73.95 75.0001C72.9 75.3001 72 75.3001 70.8 75.3001H22.8C21.6 75.3001 20.4 75.1501 19.35 74.7001C14.85 73.2001 11.7 68.8501 11.7 63.9C11.7 60.45 13.2 57.4501 15.6 55.35C16.65 54.4501 17.85 53.7 19.2 53.1C20.4 52.65 21.6 52.5 22.95 52.5C26.55 52.5 29.7 54.3 31.8 57H31.95C29.55 52.5 25.2 49.35 19.95 48.9C21.9 42 28.05 36.9 35.4 36.9C36.15 36.9 36.9 37.05 37.65 37.05C39.15 37.2 40.5 37.65 41.85 38.25C46.8 40.5 50.4 45.3 51.3 51V50.85C51.3 44.4 48 38.7 43.2 35.4C45.9 30.15 51.15 26.7 57.45 26.7ZM57.45 21C49.95 21 42.9 24.9 38.85 31.5H38.4C37.2 31.35 36.3 31.2 35.25 31.2C25.65 31.2 16.95 37.8 14.4 47.25L13.65 49.5C12.9 49.95 12.3 50.4 11.7 51C8.09997 54.15 5.99997 58.95 5.99997 63.9C5.99997 71.2501 10.65 77.8501 17.55 80.1001C19.2 80.7001 21 81.0001 22.8 81.0001H70.65C72.15 81.0001 73.5 80.8501 75 80.5501C83.85 78.4501 90 70.5001 90 61.3501C90 54.3 86.25 47.7 80.25 44.25L79.35 43.8V43.65C79.35 31.05 69.6 21 57.45 21Z" fill="#75D6FF"/>
</svg>
