<svg width="28" height="28" viewBox="0 0 28 28" fill="none" xmlns="http://www.w3.org/2000/svg">
<path d="M4.66675 8.16667H23.3334" stroke="#FAFAFA" stroke-linecap="round" stroke-linejoin="round"/>
<path d="M11.6667 12.8333V19.8333" stroke="#FAFAFA" stroke-linecap="round" stroke-linejoin="round"/>
<path d="M16.3333 12.8333V19.8333" stroke="#FAFAFA" stroke-linecap="round" stroke-linejoin="round"/>
<path d="M5.83325 8.16667L6.99992 22.1667C6.99992 22.7855 7.24575 23.379 7.68334 23.8166C8.12092 24.2542 8.71441 24.5 9.33325 24.5H18.6666C19.2854 24.5 19.8789 24.2542 20.3165 23.8166C20.7541 23.379 20.9999 22.7855 20.9999 22.1667L22.1666 8.16667" stroke="#FAFAFA" stroke-linecap="round" stroke-linejoin="round"/>
<path d="M10.5 8.16667V4.66667C10.5 4.35725 10.6229 4.0605 10.8417 3.84171C11.0605 3.62292 11.3572 3.5 11.6667 3.5H16.3333C16.6428 3.5 16.9395 3.62292 17.1583 3.84171C17.3771 4.0605 17.5 4.35725 17.5 4.66667V8.16667" stroke="#FAFAFA" stroke-linecap="round" stroke-linejoin="round"/>
</svg>
